<?xml version="1.0" encoding="utf-8"?>
<!-- Generator: Adobe Illustrator 27.9.1, SVG Export Plug-In . SVG Version: 6.00 Build 0)  -->
<svg version="1.1" id="Bambi" xmlns="http://www.w3.org/2000/svg" xmlns:xlink="http://www.w3.org/1999/xlink" x="0px" y="0px"
	 viewBox="0 0 374.1 53.5" style="enable-background:new 0 0 374.1 53.5;" xml:space="preserve">
<style type="text/css">
	.st0{opacity:0.15;fill:#442E3A;}
	.st1{fill:#FFFFFF;}
</style>
<g>
	<path class="st0" d="M356,53.5c-3.3,0-6.3-0.8-8.8-2.3c-0.6-0.4-1.3-0.4-1.9-0.1c-3,1.5-6.4,2.4-9.9,2.4c-4.1,0-7.9-1.1-11-2.9
		c-0.6-0.4-1.4-0.3-2,0c-3.3,1.9-7,2.9-10.8,2.9c-4.4,0-8.5-1.2-11.8-3.4c-0.8-0.5-1.8-0.4-2.4,0.3c-2,1.8-4.5,2.8-7,2.8
		c-0.4,0-1.1,0-2.1-0.1c-1.5-0.1-3.7-0.2-6.3-0.2c-2,0-3.9,0.1-5.4,0.2c-1.1,0.1-1.9,0.1-2.3,0.1c-2.7,0-5.5-1.1-7.5-3.3
		c-0.7-0.7-1.8-0.8-2.6-0.3c-3.6,2.5-8,3.9-12.4,3.9c-3.5,0-6.7-0.8-9.5-2.1c-0.6-0.3-1.3-0.3-1.9,0c-2.6,1.3-5.5,2.1-8.5,2.1
		c-1.9,0-3.8-0.3-5.5-0.8c-0.4-0.1-0.8-0.1-1.3,0c-1,0.3-2,0.4-3,0.4c-0.7,0-1.4,0-2.3-0.1c-1.2-0.1-2.8-0.2-4.4-0.2
		c-1.6,0-3.3,0.1-4.5,0.2c-0.9,0.1-1.6,0.1-2.2,0.1c-0.9,0-1.8-0.1-2.7-0.4c-0.4-0.1-0.8-0.1-1.1,0c-1.6,0.5-3.4,0.7-5.1,0.7
		c-3.3,0-6.3-0.8-8.8-2.3c-0.6-0.4-1.3-0.4-1.9-0.1c-3,1.5-6.4,2.4-9.9,2.4c-5.8,0-10.9-2.1-14.6-5.7c-0.9-0.9-2.4-0.7-3.1,0.4
		c-2,3.2-5.4,4.9-8.7,4.9c-0.4,0-1.3,0-2.4-0.1c-1.7-0.1-4-0.2-6-0.2c-2,0-3.9,0.1-5.4,0.2c-1.1,0.1-1.9,0.1-2.3,0.1
		c-2.7,0-5.5-1.1-7.5-3.3c-0.7-0.7-1.8-0.8-2.6-0.3c-3.6,2.5-8,3.9-12.4,3.9c-3.7,0-7.2-0.9-10.2-2.5c-0.1,0-0.1,0-0.2,0
		c-2.5,0.5-5.5,1.2-8,2l-0.2,0.1l-0.2,0c-0.8,0.2-1.7,0.3-2.6,0.3c0,0,0,0,0,0c-1.1,0-2.2-0.2-3.3-0.5c-0.4-0.1-0.7-0.1-1.1,0
		c-1.4,0.4-2.9,0.5-4.4,0.5c-2.7,0-5.5-0.7-8-2c-0.4-0.2-0.9-0.3-1.4-0.2c-2.3,0.5-5,1.2-7.2,1.8l-0.2,0.1l-0.2,0
		c-0.8,0.2-1.7,0.3-2.6,0.3c0,0,0,0,0,0c-1.2,0-2.4-0.2-3.6-0.6c-0.4-0.1-0.8-0.1-1.2,0c-1.5,0.4-3.1,0.6-4.7,0.6
		c-2.7,0-5.1-0.5-7.3-1.5c-0.5-0.2-1.2-0.3-1.7,0c-1.5,0.7-3.2,1.2-5.1,1.2h-0.6c-4.2,0-6.6-1.7-8.5-3.4l-1-0.9
		c-2,2.8-5.2,4.3-8.4,4.3c-0.7,0-1.5-0.1-2.3-0.1c-1-0.1-2.2-0.2-3.5-0.2c-1.2,0-2.3,0.1-3.3,0.2c-0.8,0.1-1.6,0.1-2.3,0.1
		C5.3,53.1,0,49.3,0,42.2c0-3.6,1.4-6.2,3.2-8c0.4-0.3,0.6-0.8,0.6-1.3L4.1,23c0-0.5-0.2-1.1-0.6-1.5c-1.8-1.8-3.1-4.5-3.1-7.9
		c0-7.1,5.3-10.9,10.3-10.9c0.5,0,1.1,0,2.3,0.1C13.8,2.9,15.5,3,16,3c0.6,0,1.3,0,2,0c0.9,0,1.9,0,2.8,0c2,0,3.7,0.4,5.3,1.3
		c0.6,0.3,1.4,0.3,2,0c1.6-1,3.5-1.5,5.3-1.5c0.7,0,1.5,0.1,2.3,0.1c1,0.1,2.2,0.2,3.5,0.2c1.2,0,2.3-0.1,3.3-0.2
		c0.8-0.1,1.6-0.1,2.3-0.1c4.1,0,8.5,2.6,9.9,7.5c0.3,0.9,1,1.5,2,1.5l0,0c0.7,0,1.4,0.1,2.1,0.2c0.2,0,0.5,0,0.7,0l0,0
		c3.6-0.1,10.9-0.2,11.4-0.2c1.8,0,3.6,0.5,5.1,1.3c0.5,0.3,1.1,0.3,1.7,0.1c0.1,0,0.1,0,0.2-0.1c0.5-5.6,4.5-8.8,8.5-9.5
		c2.9-0.5,6.8-1.4,9.4-2.1l0.2,0c1-0.3,2-0.4,3-0.4c5.3,0,11.1,4.1,11.1,10.6c0,0.1,0,0.3,0,0.6c1.7-0.3,3.5-0.5,5.3-0.5
		c4.3,0,7.9,1,10.8,2.5c0-0.2,0-0.4,0-0.6c0-7.1,5.3-10.9,10.3-10.9c0.6,0,1.5,0,3,0.1c1.7,0.1,4.1,0.2,5.7,0.2h3.1
		c1.1,0,1.9,0,2.7-0.1c1,0,2.1-0.1,3.7-0.1c9.2,0,15.5,3.6,19,8.4c0.4,0.6,1.2,0.9,1.9,0.8c1.6-0.3,3.2-0.5,5-0.5
		c2.9,0,5.5,0.4,7.7,1.2c0.2-0.1,0.4-0.1,0.6-0.2c2.5-0.6,3.1-1.1,4.4-2.5l0.2-0.2c2.2-2.2,4.8-3.3,8-3.3c0.3,0,0.5,0,0.8,0
		c0.7,0,1.4-0.2,1.8-0.8c2.7-3.7,7-6,12-6c5.1,0,9.6,2.5,12.2,6.4c0.5,0.7,1.4,1,2.2,0.8c1-0.3,2-0.4,3.1-0.4c5,0,8.3,2.7,9.8,5.9
		c0.1,0,0.2,0.1,0.3,0.1c0.5,0.2,1,0.2,1.5,0.1c2.5-0.8,5.2-1.3,8.1-1.3c4.3,0,7.9,1,10.8,2.5c0-0.2,0-0.4,0-0.6
		c0-7.1,5.3-10.9,10.3-10.9c0.3,0,0.9,0,1.8,0.1c2,0.1,5.6,0.2,11,0.2h0.9c2.3,0,5.3-0.1,7.9-0.1c2.3-0.1,4.4-0.1,5.9-0.1
		c5.6,0,9.9,3.6,10.8,8.9c0.2,0,0.5,0,0.7,0c4.3,0,7.9,1,10.8,2.5c0.6,0.3,1.3,0.3,1.9,0c3.2-1.7,7-2.6,11.2-2.6
		c2.9,0,5.5,0.4,7.7,1.2c0.2-0.1,0.4-0.1,0.6-0.2c2.5-0.6,3.1-1.1,4.4-2.5l0.2-0.2c2.2-2.2,4.8-3.2,8-3.2c4.7,0,7.9,2.3,9.5,5.3
		c0.2,0.4,0.6,0.7,1,0.9c3.4,1.6,5.9,5.1,5.9,10.2c0,3.4-1.1,6.1-2.9,8c0.2,0.3,0.5,0.6,0.7,0.9c2,2.9,2.4,6.6,1.1,9.8
		C370.3,48.8,363.5,53.5,356,53.5z"/>
	<path class="st1" d="M44.8,12.7c-1,0-3,0.3-5.6,0.3c-2.7,0-4.9-0.3-5.8-0.3c-0.2,0-0.3,0.1-0.3,0.9c0,0.7,0.1,0.8,0.3,0.9l2.2,0.7
		c1.2,0.4,1.4,0.6,1.7,6.4l0.6,6.2L21.7,13.4c-0.4-0.4-0.5-0.4-1-0.4c-1.5,0-3.4,0.1-4.8,0.1c-1.4,0-4.6-0.3-5.2-0.3
		c-0.2,0-0.3,0.1-0.3,0.9c0,0.7,0.1,0.9,0.3,0.9l1.8,0.3c1.2,0.2,1.8,1,1.7,2.2l-0.6,17.3c-0.2,5.8-0.3,5.9-1.6,6.3l-1.8,0.7
		c-0.2,0.1-0.3,0.2-0.3,0.9c0,0.7,0.1,0.9,0.3,0.9c1,0,3-0.3,5.6-0.3c2.7,0,4.9,0.3,5.8,0.3c0.2,0,0.3-0.1,0.3-0.9
		c0-0.7-0.1-0.8-0.3-0.9l-2.2-0.7c-1.2-0.4-1.4-0.5-1.7-6.3l-0.9-10.8l21,18.8c0.8,0.7,1,0.8,1.8,0.8h0.6c0.8,0,0.9-0.1,0.9-0.9
		v-0.8c0-1.4-0.2-6.4-0.2-8.8c0-1,0-1.7,0.1-3.1l0.4-8c0.3-5.8,0.3-5.9,1.6-6.4l1.8-0.7c0.2-0.1,0.3-0.2,0.3-0.9
		C45.2,12.9,45.1,12.7,44.8,12.7z M73,39.5l-1.4-0.3c-0.4-0.1-0.5-0.2-0.5-0.6v-8.1c0-5.1,0.3-7.4,0.3-8.1c0-0.3-0.3-0.6-0.6-0.6
		c-0.3,0-7.5,0.1-11.1,0.2c-0.2,0-0.4,0.2-0.4,1s0.1,0.8,0.3,0.9L61,24c0.4,0.1,0.5,0.2,0.5,0.6v13.1c-0.2,0.1-0.6,0.1-0.9,0.1
		c-2.8,0-3.7-1.4-3.7-5.2v-2.2c0-5.1,0.3-7.4,0.3-8.1c0-0.3-0.3-0.6-0.6-0.6c-0.3,0-7.5,0.1-11.1,0.2c-0.2,0-0.4,0.2-0.4,1
		s0.1,0.8,0.3,0.9l1.4,0.3c0.4,0.1,0.5,0.2,0.5,0.6v11.6c0,4.5,2.7,7.2,7,7.2c3.7,0,6.3-2.6,7.4-5.1c0.1,1.2,0.5,3.1,0.8,4.5
		c0.1,0.4,1.1,0.7,1.4,0.6c3.1-0.9,6.4-1.7,8.9-2.2c0.2,0,0.3-0.1,0.3-0.8S73.2,39.6,73,39.5z M101.4,39.5l-1.4-0.3
		c-0.4-0.1-0.5-0.2-0.5-0.6V20.2c0-5.1,0.3-7.9,0.3-8.6c0-0.3-0.8-0.6-1.1-0.6c-0.1,0-0.3,0-0.5,0.1c-2.9,0.8-7.1,1.7-10.2,2.3
		c-0.2,0-0.3,0.1-0.3,0.8c0,0.7,0.1,0.8,0.3,0.9l1.4,0.3c0.4,0.1,0.5,0.2,0.5,0.6v6.1c-1.2-0.3-2.5-0.5-3.7-0.5
		c-6.8,0-11.3,3.4-11.3,10.6c0,7,4.3,11.2,8.6,11.2c2.9,0,5.3-1.5,6.7-4.7c0.1,1.1,0.5,2.7,0.8,4.1c0.1,0.4,1.1,0.7,1.4,0.6
		c3.1-0.9,6.4-1.7,8.9-2.2c0.2,0,0.3-0.1,0.3-0.8S101.6,39.6,101.4,39.5z M90,38.1c-0.2,0.1-0.3,0.2-0.5,0.2c-0.3,0-0.6-0.1-1-0.5
		c-2.2-2.2-4.5-8.5-4.5-12.4c0-1.6,0.6-2.4,1.4-2.4c0.6,0,1,0.2,1.5,0.7c1.4,1.4,3,5.8,3,9.5V38.1z M115.1,21.6
		c-7.4,0-12.4,4.4-12.4,11.1c0,6.5,4.8,10.8,10.9,10.8c4.5,0,9.1-2.8,10.8-7c0.2-0.4-0.9-1.2-1.2-0.9c-1.1,1-2.3,1.7-4,1.7
		c-1.5,0-2.6-0.4-4.2-2c-1.2-1.2-2.3-3.1-2.9-5.2c3.9,0.1,8.6,0,11.9-0.1c0.2,0,0.4-0.1,0.5-0.3c0.1-0.3,0.1-0.7,0.1-1.1
		C124.6,24.6,121.3,21.6,115.1,21.6z M113.3,29l-1.3,0.2c-0.2-0.9-0.3-1.8-0.3-2.6c0-2.5,1.3-3.6,2.6-3.6c1.2,0,1.8,0.8,1.8,2.4
		C116,27.4,115.2,28.8,113.3,29z M154.4,12.9c-2.8,0-3.7,0.2-6.5,0.2h-3.1c-3,0-7.5-0.3-8.7-0.3c-0.2,0-0.3,0.1-0.3,0.9
		c0,0.7,0.1,0.9,0.3,0.9l1.8,0.3c0.4,0.1,0.5,0.2,0.5,0.6v25.1c0,0.4-0.1,0.5-0.5,0.6l-1.8,0.3c-0.2,0-0.3,0.2-0.3,0.9
		c0,0.7,0.1,0.9,0.3,0.9c1,0,4.3-0.3,7.7-0.3s7.5,0.3,8.5,0.3c0.2,0,0.3-0.1,0.3-0.9c0-0.7-0.1-0.9-0.3-0.9l-2.6-0.3
		c-0.4,0-0.5-0.2-0.5-0.6V30.3c1.6,1.1,4.3,1.8,6.7,1.8c6.7,0,11.1-4.2,11.1-9.9C167,16.7,162.4,12.9,154.4,12.9z M150.7,28.7
		c-0.7,0-1.2-0.1-1.5-0.2V15.2c0-0.4,0.1-0.5,0.5-0.5h0.2c3,0,5.5,2.3,5.5,6.6C155.5,26.4,153.1,28.7,150.7,28.7z M180.3,21.6
		C173,21.6,168,26,168,32.7c0,6.5,4.8,10.8,10.9,10.8c4.5,0,9.1-2.8,10.8-7c0.2-0.4-0.9-1.2-1.2-0.9c-1.1,1-2.3,1.7-4,1.7
		c-1.5,0-2.6-0.4-4.2-2c-1.2-1.2-2.3-3.1-2.9-5.2c3.9,0.1,8.6,0,11.9-0.1c0.2,0,0.4-0.1,0.5-0.3c0.1-0.3,0.1-0.7,0.1-1.1
		C189.9,24.6,186.5,21.6,180.3,21.6z M178.5,29l-1.3,0.2c-0.2-0.9-0.3-1.8-0.3-2.6c0-2.5,1.3-3.6,2.6-3.6c1.2,0,1.8,0.8,1.8,2.4
		C181.3,27.4,180.4,28.8,178.5,29z M207.1,21.9l-4.7,0c0-1.8-0.2-3.6-0.3-4.8c0-0.3-0.2-0.3-0.8-0.3s-0.7,0.1-1,0.3
		c-2.7,2.8-5,4.3-9.4,5.3c-0.2,0-0.3,0.2-0.3,0.9c0,0.7,0,0.8,0.3,0.8l1.5,0.2c0.5,0.1,0.5,0.1,0.5,0.5v11.3c0,4.5,2.3,7.2,6.6,7.2
		c3.8,0,6.7-2.6,7.8-5.2c0.2-0.4-0.5-1.1-1-1.1c-0.2,0-0.5,0.2-1,0.2c-1.8,0-2.8-1-2.8-4.8v-8.2c1.4,0,3.2,0,4.6,0
		c0.4,0,0.6-0.1,0.6-1.2C207.7,22.1,207.5,21.9,207.1,21.9z M215.7,19.5c2.8,0,4.8-2.1,4.8-4.8s-2-4.8-4.8-4.8s-4.8,2.1-4.8,4.8
		S213,19.5,215.7,19.5z M221.9,41.3l-1.4-0.3c-0.4-0.1-0.5-0.2-0.5-0.6v-9.8c0-5.1,0.3-7.9,0.3-8.6c0-0.3-0.8-0.6-1.1-0.6
		c-0.1,0-0.2,0-0.3,0.1c-3.3,2.3-7,4.4-10.4,5.7c-0.2,0.1-0.3,0.2-0.3,0.8c0,0.7,0.1,0.7,0.3,0.8l1.4,0.2c0.4,0.1,0.5,0.1,0.5,0.5
		v10.9c0,0.4-0.1,0.5-0.5,0.6l-1.4,0.3c-0.2,0-0.3,0.2-0.3,0.9c0,0.7,0.1,0.9,0.3,0.9c0.9,0,3.7-0.3,6.7-0.3c3,0,5.7,0.3,6.7,0.3
		c0.2,0,0.3-0.1,0.3-0.9C222.2,41.5,222.1,41.3,221.9,41.3z M239.1,21.9l-4.7,0c0-1.8-0.2-3.6-0.3-4.8c0-0.3-0.2-0.3-0.8-0.3
		s-0.7,0.1-1,0.3c-2.7,2.8-5,4.3-9.4,5.3c-0.2,0-0.3,0.2-0.3,0.9c0,0.7,0,0.8,0.3,0.8l1.5,0.2c0.5,0.1,0.5,0.1,0.5,0.5v11.3
		c0,4.5,2.3,7.2,6.6,7.2c3.8,0,6.7-2.6,7.8-5.2c0.2-0.4-0.5-1.1-1-1.1c-0.2,0-0.5,0.2-1,0.2c-1.8,0-2.8-1-2.8-4.8v-8.2
		c1.4,0,3.2,0,4.6,0c0.4,0,0.6-0.1,0.6-1.2C239.7,22.1,239.5,21.9,239.1,21.9z M252.9,21.6c-7.4,0-12.4,4.4-12.4,11.1
		c0,6.5,4.8,10.8,10.9,10.8c4.5,0,9.1-2.8,10.8-7c0.2-0.4-0.9-1.2-1.2-0.9c-1.1,1-2.3,1.7-4,1.7c-1.5,0-2.6-0.4-4.2-2
		c-1.2-1.2-2.3-3.1-2.9-5.2c3.9,0.1,8.6,0,11.9-0.1c0.2,0,0.4-0.1,0.5-0.3c0.1-0.3,0.1-0.7,0.1-1.1
		C262.4,24.6,259.1,21.6,252.9,21.6z M251.1,29l-1.3,0.2c-0.2-0.9-0.3-1.8-0.3-2.6c0-2.5,1.3-3.6,2.6-3.6c1.2,0,1.8,0.8,1.8,2.4
		C253.8,27.4,253,28.8,251.1,29z M301.8,23.2c0.4-3.2,0.6-6.7,0.6-9.5c0-0.8-0.1-1-1-1c-3.1,0-9.2,0.2-13.7,0.2h-0.9
		c-7.6,0-11.9-0.3-12.8-0.3c-0.2,0-0.3,0.1-0.3,0.9c0,0.7,0.1,0.9,0.3,0.9l1.8,0.3c0.4,0.1,0.5,0.2,0.5,0.6v25.1
		c0,0.4-0.1,0.5-0.5,0.6l-1.8,0.3c-0.2,0-0.3,0.2-0.3,0.9c0,0.7,0.1,0.9,0.3,0.9c1,0,4.3-0.3,7.7-0.3c4.3,0,7.5,0.3,8.5,0.3
		c0.2,0,0.3-0.1,0.3-0.9c0-0.7-0.1-0.9-0.3-0.9l-2.6-0.3c-0.4,0-0.5-0.2-0.5-0.6V29.3h3.1c0.8,0,1,0.1,1.4,1l1.9,4.3
		c0.1,0.2,0.2,0.3,1.1,0.3s1-0.1,1-0.4c0-2.4,0-3.8,0-6.2c0-2.4,0-3.8,0-6.2c0-0.3-0.1-0.4-1-0.4s-1,0-1.1,0.3l-1.9,4.3
		c-0.4,0.8-0.5,1-1.4,1H287v-12c0-0.4,0.1-0.5,0.5-0.5h0.2c1.6,0,5.8,0.3,7.9,0.6c0.8,0.1,1.1,0.3,1.4,1.1c1,2.4,1.3,3.6,2.4,6.8
		c0.1,0.3,0.2,0.4,1.2,0.4C301.6,23.6,301.7,23.6,301.8,23.2z M312.9,21.6c-7.4,0-12.4,4.4-12.4,11.1c0,6.5,4.8,10.8,10.9,10.8
		c4.5,0,9.1-2.8,10.8-7c0.2-0.4-0.9-1.2-1.2-0.9c-1.1,1-2.3,1.7-4,1.7c-1.5,0-2.6-0.4-4.2-2c-1.2-1.2-2.3-3.1-2.9-5.2
		c3.9,0.1,8.6,0,11.9-0.1c0.2,0,0.4-0.1,0.5-0.3c0.1-0.3,0.1-0.7,0.1-1.1C322.4,24.6,319.1,21.6,312.9,21.6z M311,29l-1.3,0.2
		c-0.2-0.9-0.3-1.8-0.3-2.6c0-2.5,1.3-3.6,2.6-3.6c1.2,0,1.8,0.8,1.8,2.4C313.8,27.4,312.9,28.8,311,29z M336.8,21.6
		c-7.4,0-12.4,4.4-12.4,11.1c0,6.5,4.8,10.8,10.9,10.8c4.5,0,9.1-2.8,10.8-7c0.2-0.4-0.9-1.2-1.2-0.9c-1.1,1-2.3,1.7-4,1.7
		c-1.5,0-2.6-0.4-4.2-2c-1.2-1.2-2.3-3.1-2.9-5.2c3.9,0.1,8.6,0,11.9-0.1c0.2,0,0.4-0.1,0.5-0.3c0.1-0.3,0.1-0.7,0.1-1.1
		C346.3,24.6,343,21.6,336.8,21.6z M334.9,29l-1.3,0.2c-0.2-0.9-0.3-1.8-0.3-2.6c0-2.5,1.3-3.6,2.6-3.6c1.2,0,1.8,0.8,1.8,2.4
		C337.7,27.4,336.8,28.8,334.9,29z M363.5,24.5c0.4,0,0.6-0.1,0.6-1.2c0-1.1-0.2-1.3-0.6-1.3l-4.7,0c0-1.8-0.2-3.6-0.3-4.8
		c0-0.3-0.2-0.3-0.8-0.3s-0.7,0.1-1,0.3c-2.7,2.8-5,4.3-9.4,5.3c-0.2,0-0.3,0.2-0.3,0.9c0,0.7,0,0.8,0.3,0.8l1.5,0.2
		c0.5,0.1,0.5,0.1,0.5,0.5v11.3c0,4.5,2.3,7.2,6.6,7.2c3.8,0,6.7-2.6,7.8-5.2c0.2-0.4-0.5-1.1-1-1.1c-0.2,0-0.5,0.2-1,0.2
		c-1.8,0-2.8-1-2.8-4.8v-8.2C360.3,24.5,362.1,24.5,363.5,24.5z"/>
</g>
</svg>
